<svg xmlns="http://www.w3.org/2000/svg" fill="none" viewBox="0 0 24 24" height="24" width="24" id="Tools-Ar-Kit--Streamline-Ultimate.svg"><desc>Tools AR Kit Streamline Icon: https://streamlinehq.com</desc><path fill="#bdb3e3" fill-rule="evenodd" d="M11 5.39794V2.7714l-1.51737 0.79861c-0.48873 0.25722 -1.09344 0.06955 -1.35067 -0.41917 -0.25722 -0.48873 -0.06955 -1.09344 0.41917 -1.35067L11.4448 0.277191c0.1588 -0.106216 0.3498 -0.168152 0.5552 -0.168152 0.2053 0 0.3962 0.061894 0.555 0.168043l2.8939 1.523088c0.4887 0.25723 0.6764 0.86194 0.4192 1.35067 -0.2573 0.48872 -0.862 0.67639 -1.3507 0.41917L13 2.77137v2.62657c0 0.55229 -0.4477 1 -1 1s-1 -0.44771 -1 -1Zm-9.44389 0.73156v-0.04396c0 -0.37128 0.2057 -0.71199 0.53425 -0.88492L5.6366 3.33418c0.48873 -0.25722 1.09344 -0.06955 1.35067 0.41917 0.25722 0.48873 0.06955 1.09344 -0.41917 1.35067L4.64157 6.11798l1.99919 1.05221c0.48872 0.25722 0.67639 0.86194 0.41917 1.35066 -0.25723 0.48873 -0.86194 0.6764 -1.35067 0.41918L3.55611 7.80679v2.48981c0 0.5523 -0.44771 1 -1 1 -0.55228 0 -1 -0.4477 -1 -1V6.16965c-0.00027 -0.01337 -0.00027 -0.02675 0 -0.04015Zm7.85724 2.49999c-0.48873 -0.25723 -1.09344 -0.06956 -1.35066 0.41917 -0.25723 0.48872 -0.06956 1.09344 0.41917 1.35064L11 11.7247v3.0911c0 0.5523 0.4477 1 1 1s1 -0.4477 1 -1v-3.0911l2.5183 -1.3254c0.4887 -0.2572 0.6764 -0.86192 0.4191 -1.35064 -0.2572 -0.48873 -0.8619 -0.6764 -1.3506 -0.41917l-2.5867 1.36142 -2.58675 -1.36142Zm9.94505 -2.51151 -1.9265 -1.01396c-0.4887 -0.25723 -0.6764 -0.86194 -0.4192 -1.35067 0.2572 -0.48872 0.862 -0.67639 1.3507 -0.41917l3.5462 1.86644c0.3286 0.17293 0.5343 0.51364 0.5343 0.88492v0.04414c0.0002 0.01328 0.0002 0.02654 0 0.03979v4.12713c0 0.5523 -0.4477 1 -1 1s-1 -0.4477 -1 -1V7.80678l-2.1532 1.13325c-0.4887 0.25722 -1.0934 0.06955 -1.3507 -0.41918 -0.2572 -0.48872 -0.0695 -1.09344 0.4192 -1.35066l1.9992 -1.05221ZM13 18.6817c0 -0.5523 -0.4477 -1 -1 -1s-1 0.4477 -1 1v2.5406l-1.52955 -0.805c-0.48873 -0.2573 -1.09344 -0.0696 -1.35066 0.4191 -0.25723 0.4888 -0.06956 1.0935 0.41917 1.3507l2.86974 1.5104c0.1656 0.1216 0.3701 0.1934 0.5913 0.1934 0.2212 0 0.4256 -0.0718 0.5912 -0.1933l2.8698 -1.5105c0.4888 -0.2572 0.6764 -0.8619 0.4192 -1.3507 -0.2572 -0.4887 -0.8619 -0.6764 -1.3506 -0.4191L13 21.2223v-2.5406ZM2.55611 13.0496c0.55229 0 1 0.4477 1 1v2.295l2.15321 -1.1333c0.48873 -0.2572 1.09344 -0.0696 1.35067 0.4192 0.25722 0.4887 0.06955 1.0934 -0.41918 1.3506l-1.95082 1.0268 1.87811 0.9885c0.48872 0.2572 0.67639 0.8619 0.41917 1.3506 -0.25723 0.4887 -0.86194 0.6764 -1.35067 0.4192l-3.54624 -1.8664c-0.32723 -0.1723 -0.5326 -0.511 -0.53424 -0.8805 -0.0002 -0.0115 -0.00021 -0.023 -0.00001 -0.0345v-3.9352c0 -0.5523 0.44772 -1 1 -1ZM16.94 15.6305c0.2572 -0.4888 0.8619 -0.6764 1.3507 -0.4192l2.1532 1.1333v-2.295c0 -0.5523 0.4477 -1 1 -1s1 0.4477 1 1v3.9354c0.0002 0.0113 0.0002 0.0227 0 0.034 -0.0016 0.3697 -0.207 0.7085 -0.5343 0.8808l-3.5462 1.8664c-0.4888 0.2572 -1.0935 0.0695 -1.3507 -0.4192 -0.2572 -0.4887 -0.0695 -1.0934 0.4192 -1.3507l1.8781 -0.9884 -1.9508 -1.0268c-0.4888 -0.2572 -0.6764 -0.8619 -0.4192 -1.3506Z" clip-rule="evenodd" stroke-width="1"></path></svg>