<svg xmlns="http://www.w3.org/2000/svg" viewBox="0 0 24 24" height="24" width="24" id="Facebook-Gaming-Logo--Streamline-Ultimate.svg"><desc>Facebook Gaming Logo Streamline Icon: https://streamlinehq.com</desc><g><path d="M23.5 8.5H9a0.5 0.5 0 0 0 -0.5 0.5v6a0.5 0.5 0 0 0 0.5 0.5h8v8a0.5 0.5 0 0 0 0.5 0.5h6a0.5 0.5 0 0 0 0.5 -0.5V9a0.5 0.5 0 0 0 -0.5 -0.5Z" fill="#ea08f9" stroke-width="1"></path><path d="M23.5 0H0.5a0.5 0.5 0 0 0 -0.5 0.5v23a0.5 0.5 0 0 0 0.5 0.5H15a0.5 0.5 0 0 0 0.5 -0.5v-6a0.5 0.5 0 0 0 -0.5 -0.5H7V7h16.5a0.5 0.5 0 0 0 0.5 -0.5v-6a0.5 0.5 0 0 0 -0.5 -0.5Z" fill="#ea08f9" stroke-width="1"></path></g></svg>