<svg xmlns="http://www.w3.org/2000/svg" viewBox="0 0 24 24" height="24" width="24" id="Baby-Family-Toy-Yellow-Duck--Streamline-Ultimate.svg"><desc>Baby Family Toy Yellow Duck Streamline Icon: https://streamlinehq.com</desc><g><path d="M4 6.15A5.38 5.38 0 0 1 0.49 7.58a0.5 0.5 0 0 0 -0.49 0.5C0 10 1.16 12 3.12 12h2.69A6.73 6.73 0 0 1 4 6.15Z" fill="#13e790" stroke-width="1"></path><path d="M23.94 11.45c-0.05 -0.54 0 -1 -0.57 -1.29a1.07 1.07 0 0 0 -1.31 0.25 4.15 4.15 0 0 1 -3.3 1.33h-5a5.56 5.56 0 0 0 -2.46 -10.2 5.72 5.72 0 0 0 -5.51 2.59A5.73 5.73 0 0 0 8 12.32a4.74 4.74 0 0 0 -1.24 0.68A4.78 4.78 0 0 0 5 16.78c0 4.09 4.42 5.74 8.51 5.72 7.59 -0.01 11.01 -4.19 10.43 -11.05ZM9.82 8a1.54 1.54 0 1 1 1.54 -1.54A1.54 1.54 0 0 1 9.82 8Z" fill="#13e790" stroke-width="1"></path></g></svg>