<svg xmlns="http://www.w3.org/2000/svg" viewBox="0 0 24 24" height="24" width="24" id="Racing-Handcycle--Streamline-Ultimate.svg"><desc>Racing Handcycle Streamline Icon: https://streamlinehq.com</desc><path d="M20.124 10.3352C19.6205 10.3335 19.1223 10.4378 18.6617 10.6414L18.6123 10.5822C18.3288 10.1857 17.8911 9.9274 17.4069 9.8708C17.3742 9.8659 17.3409 9.8659 17.3081 9.8708H15.8261L13.7216 8.1417C13.6832 8.1113 13.6397 8.0878 13.5931 8.0726C13.6082 7.9512 13.6082 7.8284 13.5931 7.707C13.6007 6.5813 12.3869 5.8696 11.4083 6.4259C10.4296 6.9821 10.4202 8.3892 11.3912 8.9586C11.6184 9.0918 11.8774 9.1612 12.1407 9.1594C12.285 9.1573 12.4281 9.134 12.5656 9.0902C12.6095 9.1539 12.6591 9.2134 12.7138 9.2681L14.5021 10.7798C14.1007 11.4592 13.8043 12.1954 13.6228 12.9633H9.6707L7.9218 9.3471C7.5757 8.5865 6.5361 8.4858 6.0504 9.1658C5.825 9.4814 5.7851 9.8932 5.9457 10.2462L6.4101 11.2936C4.2804 9.3963 0.8955 10.5159 0.3173 13.3089C-0.1584 15.6063 1.5939 17.7617 3.94 17.7652C5.532 17.7656 6.9453 16.7465 7.4475 15.2358C7.9598 15.8657 8.7303 16.2291 9.5422 16.2239H14.0674C14.4744 16.2185 14.8031 15.8899 14.8084 15.4828C14.7559 14.0349 15.1267 12.6031 15.8755 11.3627H17.239C17.2906 11.377 17.3359 11.4084 17.3674 11.4516C15.3899 13.507 16.3789 16.9323 19.1476 17.6173C19.4412 17.6899 19.7426 17.7263 20.045 17.7257C22.9048 17.721 24.6871 14.6222 23.2531 12.1479C22.5898 11.0033 21.3679 10.2978 20.045 10.2956ZM3.9795 16.2634C2.2606 16.2675 1.1818 14.4093 2.0377 12.9186C2.8936 11.4279 5.0423 11.4227 5.9053 12.9093C5.9773 13.0333 6.0371 13.1639 6.084 13.2993H3.693C3.1226 13.3014 2.7683 13.9202 3.0553 14.4132C3.1876 14.6403 3.4302 14.7804 3.693 14.7813H6.1236C5.808 15.6923 4.9435 16.2978 3.9795 16.2831ZM20.124 16.2634C18.4127 16.2729 17.3328 14.4264 18.1802 12.9396C18.2242 12.8623 18.2728 12.7878 18.3258 12.7163L19.5806 14.4651C19.7226 14.6558 19.9456 14.7691 20.1833 14.7714C20.3395 14.7743 20.4923 14.7257 20.6181 14.6331C20.9265 14.4 21.0001 13.967 20.786 13.6451L19.5609 11.8962C19.7451 11.8492 19.934 11.8227 20.124 11.8172C21.843 11.8172 22.9173 13.678 22.0578 15.1666C21.659 15.8575 20.9218 16.2831 20.124 16.2831Z" fill="#f0aa23" stroke-width="1"></path></svg>