<svg xmlns="http://www.w3.org/2000/svg" fill="none" viewBox="0 0 24 24" height="24" width="24" id="Game--Streamline-Ultimate.svg"><desc>Game Streamline Icon: https://streamlinehq.com</desc><path fill="#d1f908" fill-rule="evenodd" d="M3.451 4.364C5.05 4.04 8.624 3.68 12 3.68c3.376 0 6.95 0.36 8.549 0.683 0.393 0.079 0.721 0.336 0.895 0.698 1.365 2.839 2.243 8.618 2.203 11.098 -0.042 2.652 -1.862 4.175 -4.16 4.16 -2.368 -0.017 -3.342 -2.85 -3.952 -4.627 -0.129 -0.373 -0.24 -0.699 -0.347 -0.943H8.812c-0.106 0.244 -0.218 0.57 -0.346 0.943 -0.611 1.777 -1.585 4.61 -3.954 4.627 -2.297 0.015 -4.117 -1.508 -4.16 -4.16 -0.039 -2.48 0.84 -8.26 2.204 -11.098 0.174 -0.362 0.502 -0.619 0.895 -0.698Zm3.322 7.417a0.75 0.75 0 0 1 -0.75 -0.75V9.69h-1.34a0.75 0.75 0 1 1 0 -1.5h1.34V6.848a0.75 0.75 0 0 1 1.5 0V8.19h1.34a0.75 0.75 0 1 1 0 1.5h-1.34v1.34a0.75 0.75 0 0 1 -0.75 0.75Zm10.47 -1.068a1.287 1.287 0 1 1 -2.573 0 1.287 1.287 0 0 1 2.574 0Zm1.054 -2.061a1.287 1.287 0 1 0 0 -2.574 1.287 1.287 0 0 0 0 2.574Z" clip-rule="evenodd" stroke-width="1"></path></svg>