<svg xmlns="http://www.w3.org/2000/svg" viewBox="0 0 24 24" height="24" width="24" id="Vr-User-Headphones--Streamline-Ultimate.svg"><desc>Vr User Headphones Streamline Icon: https://streamlinehq.com</desc><g><path d="M22.49 11.58a10.5 10.5 0 0 0 -21 0A1.5 1.5 0 0 0 0.5 13v3A1.5 1.5 0 0 0 2 17.5h1.5A0.5 0.5 0 0 0 4 17v-5a0.5 0.5 0 0 0 -0.48 -0.5 8.49 8.49 0 0 1 17 0 0.5 0.5 0 0 0 -0.52 0.5v5a0.5 0.5 0 0 0 0.5 0.5H22a1.5 1.5 0 0 0 1.5 -1.5v-3a1.5 1.5 0 0 0 -1.01 -1.42Z" fill="#e30b2e" stroke-width="1"></path><path d="M12 7a7 7 0 0 0 -6.58 4.62 1 1 0 0 0 -0.06 0.25A1.93 1.93 0 0 0 5 13v3a2 2 0 0 0 2 2h2.5a1 1 0 0 0 0.8 -0.4l0.9 -1.2a1 1 0 0 1 1.6 0l0.9 1.2a1 1 0 0 0 0.8 0.4H17a2 2 0 0 0 2 -2v-3a1.91 1.91 0 0 0 -0.31 -1A7 7 0 0 0 12 7Zm-2.5 7h-2a0.5 0.5 0 1 1 0 -1h2a0.5 0.5 0 0 1 0 1Zm3 0h-1a0.5 0.5 0 0 1 0 -1h1a0.5 0.5 0 0 1 0 1Zm-4 -3a0.25 0.25 0 0 1 -0.23 -0.15 0.25 0.25 0 0 1 0 -0.27 5 5 0 0 1 7.31 0 0.26 0.26 0 0 1 0 0.27 0.25 0.25 0 0 1 -0.23 0.15Z" fill="#e30b2e" stroke-width="1"></path><path d="M15.05 19.46a5.07 5.07 0 0 1 -6.1 0A1 1 0 1 0 7.73 21a7 7 0 0 0 8.54 0 1 1 0 1 0 -1.22 -1.58Z" fill="#e30b2e" stroke-width="1"></path></g></svg>